<svg xmlns="http://www.w3.org/2000/svg" xmlns:xlink="http://www.w3.org/1999/xlink" width="100" zoomAndPan="magnify" viewBox="0 0 75 74.999997" height="100" preserveAspectRatio="xMidYMid meet" version="1.0"><path fill="#e4a138" d="M 37.5 51.519531 C 29.757812 51.519531 23.480469 45.242188 23.480469 37.5 C 23.480469 29.757812 29.757812 23.480469 37.5 23.480469 C 45.242188 23.480469 51.519531 29.757812 51.519531 37.5 C 51.519531 45.242188 45.242188 51.519531 37.5 51.519531 Z M 37.5 0 C 16.789062 0 0 16.789062 0 37.5 C 0 58.210938 16.789062 75 37.5 75 C 58.210938 75 75 58.210938 75 37.5 C 75 16.789062 58.210938 0 37.5 0 " fill-opacity="1" fill-rule="nonzero"/><path fill="#c37a2f" d="M 37.5 51.519531 C 29.757812 51.519531 23.480469 45.242188 23.480469 37.5 C 23.480469 29.757812 29.757812 23.480469 37.5 23.480469 C 45.242188 23.480469 51.519531 29.757812 51.519531 37.5 C 51.519531 45.242188 45.242188 51.519531 37.5 51.519531 Z M 52.742188 36.953125 C 52.285156 35.59375 52.199219 34.210938 51.730469 32.851562 C 51.171875 31.222656 51.257812 29.261719 50.371094 27.769531 C 49.605469 26.476562 48.152344 25.753906 46.738281 25.210938 C 45.527344 24.75 44.269531 24.433594 43.0625 23.964844 C 41.003906 23.167969 39.65625 21.519531 37.453125 21.257812 C 37.167969 21.222656 36.867188 21.210938 36.546875 21.226562 C 35.253906 21.296875 34.007812 21.742188 32.835938 22.292969 C 30.9375 23.179688 30.101562 24.703125 28.484375 25.839844 C 26.128906 27.496094 22.644531 28.4375 22.355469 31.78125 C 22.21875 33.386719 22.636719 35.171875 22.671875 36.796875 C 22.71875 38.765625 21.953125 40.875 22.707031 42.78125 C 23.535156 44.882812 25.007812 46.234375 26.71875 47.601562 C 27.019531 47.84375 27.324219 48.085938 27.578125 48.378906 C 27.796875 48.632812 27.976562 48.921875 28.144531 49.210938 C 29.21875 51.054688 30.859375 52.398438 33.097656 52.972656 C 35.308594 53.539062 37.484375 52.628906 39.679688 52.441406 C 42.101562 52.234375 44.671875 51.851562 46.558594 50.199219 C 47.820312 49.09375 48.765625 47.535156 49.667969 46.140625 C 50.421875 44.964844 51.179688 43.695312 52.03125 42.582031 C 52.777344 41.605469 53.300781 40.414062 53.257812 39.191406 C 53.230469 38.425781 52.984375 37.683594 52.742188 36.953125 " fill-opacity="1" fill-rule="nonzero"/><path fill="#91dbf4" d="M 37.453125 21.257812 C 37.167969 21.222656 36.867188 21.210938 36.546875 21.226562 C 35.253906 21.296875 34.007812 21.742188 32.835938 22.292969 C 30.9375 23.179688 30.101562 24.703125 28.484375 25.839844 C 26.128906 27.496094 22.644531 28.4375 22.355469 31.78125 C 22.21875 33.386719 22.636719 35.171875 22.671875 36.796875 C 22.71875 38.765625 21.953125 40.875 22.707031 42.78125 C 23.535156 44.882812 25.007812 46.234375 26.71875 47.601562 C 27.019531 47.84375 27.324219 48.085938 27.578125 48.378906 C 27.796875 48.632812 27.976562 48.921875 28.144531 49.210938 C 29.21875 51.054688 30.859375 52.398438 33.097656 52.972656 C 35.308594 53.539062 37.484375 52.628906 39.679688 52.441406 C 42.101562 52.234375 44.671875 51.851562 46.558594 50.199219 C 47.820312 49.09375 48.765625 47.535156 49.667969 46.140625 C 50.421875 44.964844 51.179688 43.695312 52.03125 42.582031 C 52.777344 41.605469 53.300781 40.414062 53.257812 39.191406 C 53.230469 38.425781 52.984375 37.683594 52.742188 36.953125 C 52.285156 35.59375 52.199219 34.210938 51.730469 32.851562 C 51.171875 31.222656 51.257812 29.261719 50.371094 27.769531 C 49.605469 26.476562 48.152344 25.753906 46.738281 25.210938 C 45.527344 24.75 44.269531 24.433594 43.0625 23.964844 C 41.003906 23.167969 39.65625 21.519531 37.453125 21.257812 Z M 37.566406 72.238281 C 36.207031 71.960938 34.835938 71.773438 33.417969 71.929688 C 31.660156 72.128906 29.988281 72.757812 28.191406 72.566406 C 26.121094 72.34375 24.097656 71.46875 22.679688 69.964844 C 21.839844 69.078125 21.148438 67.949219 20.046875 67.359375 C 18.410156 66.488281 16.550781 66.476562 14.941406 65.753906 C 13.675781 65.1875 12.664062 63.371094 12.253906 62.144531 C 11.703125 60.507812 11.714844 59.871094 10.054688 59.273438 C 8.785156 58.816406 7.519531 58.242188 6.605469 57.222656 C 5.632812 56.136719 5.1875 54.667969 5.089844 53.21875 C 5.003906 51.855469 5.921875 49.449219 5.34375 48.28125 C 4.539062 46.648438 3 45.75 2.320312 44.027344 C 1.660156 42.339844 1.609375 40.410156 2.269531 38.71875 C 2.746094 37.492188 3.433594 36.394531 3.402344 35.054688 C 3.363281 33.550781 2.738281 32.035156 2.492188 30.535156 C 2.371094 29.796875 2.25 29.039062 2.394531 28.304688 C 2.695312 26.746094 4.0625 25.65625 5.195312 24.53125 C 6.277344 23.464844 7.207031 22.257812 7.964844 20.949219 C 8.734375 19.621094 8.203125 17.945312 8.671875 16.476562 C 9.027344 15.363281 9.707031 14.332031 10.6875 13.6875 C 12.621094 12.414062 14.738281 12.421875 16.265625 10.492188 C 17.285156 9.207031 17.421875 7.515625 18.605469 6.382812 C 21.101562 3.996094 23.558594 5.25 26.550781 5.136719 C 29.558594 5.019531 30.492188 2.140625 33.269531 1.449219 C 35.523438 0.886719 37.511719 2.050781 39.449219 3.011719 C 40.429688 3.496094 41.25 4.058594 42.347656 4.085938 C 43.734375 4.117188 45.148438 3.648438 46.5 3.386719 C 48.269531 3.042969 50.234375 2.925781 51.75 3.894531 C 53.273438 4.871094 53.628906 6.578125 54.734375 7.875 C 56.492188 9.933594 60.109375 9.335938 62.316406 10.667969 C 63.101562 11.140625 63.878906 11.726562 64.234375 12.566406 C 65.023438 14.425781 64.027344 16.851562 65.855469 18.335938 C 67.085938 19.335938 69.085938 19.339844 70.054688 20.777344 C 71.382812 22.347656 71.191406 24.640625 70.929688 26.667969 C 70.785156 27.777344 70.386719 29.03125 70.875 30.085938 C 71.375 31.164062 72.425781 32.03125 72.96875 33.125 C 74.113281 35.417969 73.097656 37.359375 72.167969 39.523438 C 71.382812 41.304688 71.195312 43.804688 71.78125 45.652344 C 71.957031 46.207031 72.210938 46.75 72.246094 47.332031 C 72.273438 47.769531 72.175781 48.207031 72.070312 48.632812 C 71.804688 49.699219 71.4375 50.886719 70.582031 51.648438 C 69.769531 52.371094 68.65625 52.628906 67.9375 53.5 C 67.113281 54.496094 66.953125 55.851562 66.761719 57.121094 C 66.566406 58.390625 66.242188 59.757812 65.238281 60.570312 C 63.675781 61.828125 61.101562 62.25 60.003906 64.066406 C 59.472656 64.941406 59.40625 65.925781 58.675781 66.746094 C 57.285156 68.296875 55.339844 69.375 53.257812 69.671875 C 51.746094 69.886719 50.007812 69.660156 48.539062 70.09375 C 47.136719 70.507812 45.789062 71.691406 44.476562 72.359375 C 43.898438 72.648438 43.304688 72.929688 42.667969 73.03125 C 41.964844 73.144531 41.246094 73.035156 40.550781 72.894531 C 39.546875 72.695312 38.558594 72.441406 37.566406 72.238281 " fill-opacity="1" fill-rule="nonzero"/><path fill="#b1e6f5" d="M 36.84375 18.277344 C 36.691406 18.277344 36.539062 18.28125 36.386719 18.289062 C 34.890625 18.371094 33.363281 18.796875 31.589844 19.625 C 29.996094 20.371094 28.957031 21.410156 28.121094 22.242188 C 27.652344 22.710938 27.246094 23.113281 26.792969 23.433594 C 26.339844 23.75 25.78125 24.066406 25.1875 24.402344 C 24.09375 25.015625 22.855469 25.714844 21.800781 26.707031 C 20.382812 28.046875 19.585938 29.667969 19.425781 31.527344 C 19.316406 32.777344 19.457031 34.015625 19.578125 35.105469 C 19.652344 35.738281 19.71875 36.339844 19.730469 36.863281 C 19.742188 37.34375 19.675781 37.925781 19.601562 38.539062 C 19.425781 40.050781 19.207031 41.929688 19.96875 43.859375 C 21.089844 46.707031 23.09375 48.46875 24.878906 49.898438 C 25.058594 50.039062 25.277344 50.214844 25.355469 50.304688 C 25.425781 50.390625 25.558594 50.617188 25.601562 50.691406 C 27.121094 53.304688 29.460938 55.078125 32.367188 55.824219 C 33.089844 56.007812 33.832031 56.097656 34.632812 56.097656 C 35.878906 56.097656 37.046875 55.871094 38.078125 55.671875 C 38.742188 55.542969 39.363281 55.421875 39.929688 55.375 C 42.914062 55.121094 46.015625 54.585938 48.496094 52.414062 C 49.96875 51.125 51.003906 49.503906 51.917969 48.078125 C 51.992188 47.960938 52.066406 47.847656 52.140625 47.730469 C 52.324219 47.445312 52.511719 47.152344 52.6875 46.871094 C 53.234375 46.007812 53.796875 45.117188 54.367188 44.367188 C 55.628906 42.714844 56.261719 40.890625 56.199219 39.089844 C 56.15625 37.886719 55.808594 36.851562 55.53125 36.019531 C 55.367188 35.527344 55.253906 34.957031 55.132812 34.359375 C 54.984375 33.613281 54.816406 32.769531 54.515625 31.894531 C 54.367188 31.46875 54.269531 30.894531 54.167969 30.292969 C 53.964844 29.105469 53.710938 27.632812 52.902344 26.269531 C 51.648438 24.152344 49.511719 23.121094 47.789062 22.464844 C 47.113281 22.207031 46.457031 21.996094 45.820312 21.792969 C 45.21875 21.605469 44.652344 21.425781 44.128906 21.21875 C 43.574219 21.007812 43.035156 20.660156 42.40625 20.257812 C 41.242188 19.507812 39.792969 18.574219 37.804688 18.335938 C 37.488281 18.296875 37.164062 18.277344 36.84375 18.277344 Z M 42.054688 70.136719 C 41.789062 70.136719 41.4375 70.070312 41.128906 70.011719 C 40.644531 69.914062 40.160156 69.800781 39.648438 69.683594 C 39.164062 69.574219 38.664062 69.460938 38.15625 69.355469 C 37.191406 69.15625 35.898438 68.929688 34.488281 68.929688 C 34.011719 68.929688 33.542969 68.957031 33.089844 69.007812 C 32.355469 69.089844 31.683594 69.222656 31.03125 69.355469 C 30.253906 69.511719 29.515625 69.660156 28.882812 69.660156 C 28.75 69.660156 28.625 69.652344 28.503906 69.640625 C 27.03125 69.480469 25.6875 68.863281 24.816406 67.945312 C 24.640625 67.753906 24.445312 67.523438 24.238281 67.273438 C 23.5625 66.464844 22.722656 65.453125 21.429688 64.761719 C 20.199219 64.109375 18.988281 63.828125 17.921875 63.582031 C 17.265625 63.429688 16.644531 63.285156 16.175781 63.082031 C 15.90625 62.894531 15.332031 62.070312 15.042969 61.207031 C 14.980469 61.023438 14.925781 60.847656 14.871094 60.679688 C 14.425781 59.269531 13.871094 57.519531 11.050781 56.503906 C 10.21875 56.203125 9.300781 55.820312 8.796875 55.261719 C 8.363281 54.777344 8.089844 53.984375 8.027344 53.027344 C 8.019531 52.816406 8.128906 52.1875 8.199219 51.769531 C 8.449219 50.332031 8.757812 48.546875 7.984375 46.976562 C 7.433594 45.867188 6.699219 45.039062 6.109375 44.371094 C 5.617188 43.820312 5.234375 43.386719 5.0625 42.949219 C 4.652344 41.90625 4.632812 40.753906 5.011719 39.785156 C 5.101562 39.550781 5.214844 39.296875 5.332031 39.03125 C 5.800781 37.972656 6.386719 36.652344 6.34375 34.976562 C 6.308594 33.722656 6.007812 32.574219 5.746094 31.558594 C 5.605469 31.019531 5.472656 30.511719 5.398438 30.0625 C 5.332031 29.652344 5.238281 29.089844 5.28125 28.859375 C 5.363281 28.449219 6.148438 27.699219 6.722656 27.152344 C 6.898438 26.980469 7.082031 26.808594 7.265625 26.625 C 8.527344 25.378906 9.617188 23.964844 10.511719 22.421875 C 11.328125 21.019531 11.359375 19.578125 11.382812 18.523438 C 11.390625 18.070312 11.402344 17.601562 11.476562 17.371094 C 11.648438 16.824219 11.953125 16.378906 12.308594 16.140625 C 12.789062 15.824219 13.363281 15.601562 14.023438 15.34375 C 15.410156 14.804688 17.136719 14.128906 18.574219 12.316406 C 19.277344 11.425781 19.675781 10.492188 19.992188 9.742188 C 20.214844 9.214844 20.425781 8.710938 20.640625 8.507812 C 21.167969 8.003906 21.574219 7.851562 22.386719 7.851562 C 22.820312 7.851562 23.332031 7.898438 23.871094 7.949219 C 24.546875 8.011719 25.3125 8.085938 26.144531 8.085938 C 26.320312 8.085938 26.496094 8.082031 26.664062 8.074219 C 29.34375 7.972656 30.988281 6.542969 32.191406 5.5 C 32.945312 4.847656 33.433594 4.4375 33.984375 4.300781 C 34.144531 4.261719 34.300781 4.242188 34.46875 4.242188 C 35.347656 4.242188 36.441406 4.792969 37.601562 5.378906 C 37.785156 5.46875 37.964844 5.558594 38.148438 5.648438 C 38.300781 5.726562 38.460938 5.808594 38.632812 5.898438 C 39.507812 6.359375 40.703125 6.988281 42.28125 7.027344 C 42.347656 7.027344 42.414062 7.027344 42.484375 7.027344 C 43.78125 7.027344 44.980469 6.75 46.035156 6.503906 C 46.398438 6.417969 46.742188 6.339844 47.0625 6.277344 C 47.738281 6.144531 48.308594 6.078125 48.796875 6.078125 C 49.398438 6.078125 49.859375 6.179688 50.164062 6.375 C 50.46875 6.570312 50.726562 7.007812 51.121094 7.710938 C 51.480469 8.347656 51.886719 9.070312 52.496094 9.78125 C 54.1875 11.769531 56.566406 12.207031 58.480469 12.5625 C 59.386719 12.726562 60.324219 12.902344 60.796875 13.1875 C 61.332031 13.511719 61.496094 13.683594 61.535156 13.738281 C 61.628906 13.988281 61.652344 14.542969 61.675781 15.03125 C 61.710938 15.78125 61.75 16.628906 62 17.53125 C 62.347656 18.785156 63.019531 19.824219 64 20.621094 C 64.878906 21.332031 65.835938 21.695312 66.605469 21.988281 C 66.957031 22.121094 67.480469 22.320312 67.632812 22.445312 L 67.707031 22.554688 L 67.808594 22.675781 C 68.390625 23.363281 68.132812 25.339844 68.011719 26.289062 C 67.988281 26.460938 67.953125 26.667969 67.914062 26.890625 C 67.722656 27.992188 67.433594 29.660156 68.207031 31.324219 C 68.613281 32.203125 69.160156 32.878906 69.640625 33.476562 C 69.921875 33.828125 70.210938 34.1875 70.335938 34.4375 C 70.726562 35.222656 70.546875 35.878906 69.671875 37.882812 C 69.605469 38.035156 69.539062 38.191406 69.46875 38.347656 C 68.378906 40.835938 68.1875 44.050781 68.976562 46.542969 C 69.039062 46.738281 69.101562 46.914062 69.160156 47.070312 C 69.210938 47.214844 69.277344 47.40625 69.304688 47.507812 C 69.285156 47.621094 69.234375 47.835938 69.210938 47.925781 C 68.949219 48.988281 68.75 49.339844 68.625 49.449219 C 68.519531 49.546875 68.238281 49.703125 67.988281 49.839844 C 67.332031 50.203125 66.429688 50.703125 65.667969 51.628906 C 64.375 53.191406 64.09375 55.074219 63.886719 56.449219 L 63.851562 56.675781 C 63.652344 57.984375 63.433594 58.242188 63.390625 58.28125 C 63.054688 58.550781 62.46875 58.832031 61.847656 59.128906 C 60.40625 59.816406 58.617188 60.675781 57.484375 62.542969 C 57.125 63.140625 56.914062 63.703125 56.746094 64.15625 C 56.664062 64.378906 56.539062 64.71875 56.480469 64.785156 C 55.53125 65.84375 54.207031 66.5625 52.839844 66.757812 C 52.40625 66.820312 51.859375 66.835938 51.285156 66.847656 C 50.195312 66.875 48.957031 66.902344 47.703125 67.273438 C 46.425781 67.652344 45.34375 68.355469 44.390625 68.976562 C 43.933594 69.269531 43.503906 69.550781 43.144531 69.734375 C 42.902344 69.855469 42.445312 70.085938 42.203125 70.125 C 42.175781 70.128906 42.128906 70.136719 42.054688 70.136719 " fill-opacity="1" fill-rule="nonzero"/><path fill="#fef4df" d="M 53 21.871094 L 50.039062 21.871094 C 49.3125 21.871094 48.714844 21.277344 48.714844 20.546875 C 48.714844 19.820312 49.3125 19.226562 50.039062 19.226562 L 53 19.226562 C 53.726562 19.226562 54.324219 19.820312 54.324219 20.546875 C 54.324219 21.277344 53.726562 21.871094 53 21.871094 " fill-opacity="1" fill-rule="nonzero"/><path fill="#ffffff" d="M 49.453125 20.546875 C 49.453125 20.226562 49.714844 19.960938 50.039062 19.960938 L 53 19.960938 C 53.320312 19.960938 53.585938 20.226562 53.585938 20.546875 C 53.585938 20.871094 53.320312 21.136719 53 21.136719 L 50.039062 21.136719 C 49.714844 21.136719 49.453125 20.871094 49.453125 20.546875 " fill-opacity="1" fill-rule="nonzero"/><path fill="#fef4df" d="M 46.578125 64.890625 L 44.644531 67.132812 C 44.167969 67.683594 43.328125 67.742188 42.777344 67.265625 C 42.226562 66.792969 42.164062 65.953125 42.640625 65.402344 L 44.574219 63.160156 C 45.050781 62.609375 45.890625 62.550781 46.441406 63.023438 C 46.992188 63.5 47.054688 64.339844 46.578125 64.890625 " fill-opacity="1" fill-rule="nonzero"/><path fill="#ffffff" d="M 43.257812 66.710938 C 43.011719 66.5 42.984375 66.125 43.195312 65.882812 L 45.132812 63.640625 C 45.34375 63.398438 45.714844 63.371094 45.960938 63.582031 C 46.203125 63.792969 46.230469 64.167969 46.019531 64.410156 L 44.085938 66.648438 C 43.875 66.894531 43.5 66.921875 43.257812 66.710938 " fill-opacity="1" fill-rule="nonzero"/><path fill="#fef4df" d="M 38.527344 5.691406 L 41.269531 6.800781 C 41.945312 7.074219 42.273438 7.851562 42 8.527344 C 41.726562 9.203125 40.949219 9.53125 40.273438 9.253906 L 37.53125 8.144531 C 36.859375 7.871094 36.53125 7.09375 36.804688 6.417969 C 37.078125 5.746094 37.851562 5.417969 38.527344 5.691406 " fill-opacity="1" fill-rule="nonzero"/><path fill="#ffffff" d="M 41.316406 8.25 C 41.195312 8.550781 40.851562 8.695312 40.550781 8.574219 L 37.808594 7.460938 C 37.507812 7.339844 37.363281 6.996094 37.484375 6.695312 C 37.605469 6.394531 37.953125 6.25 38.25 6.371094 L 40.992188 7.484375 C 41.292969 7.605469 41.4375 7.949219 41.316406 8.25 " fill-opacity="1" fill-rule="nonzero"/><path fill="#fef4df" d="M 59.140625 48.1875 L 56.222656 48.664062 C 55.503906 48.78125 54.820312 48.292969 54.703125 47.574219 C 54.582031 46.855469 55.074219 46.171875 55.792969 46.054688 L 58.710938 45.574219 C 59.429688 45.457031 60.113281 45.945312 60.234375 46.664062 C 60.351562 47.382812 59.859375 48.066406 59.140625 48.1875 " fill-opacity="1" fill-rule="nonzero"/><path fill="#ffffff" d="M 55.425781 47.453125 C 55.375 47.136719 55.59375 46.832031 55.910156 46.777344 L 58.832031 46.300781 C 59.152344 46.246094 59.453125 46.464844 59.507812 46.785156 C 59.558594 47.101562 59.34375 47.40625 59.023438 47.460938 L 56.101562 47.9375 C 55.785156 47.992188 55.480469 47.773438 55.425781 47.453125 " fill-opacity="1" fill-rule="nonzero"/><path fill="#fef4df" d="M 26.894531 56.273438 L 24.792969 54.191406 C 24.273438 53.679688 24.269531 52.839844 24.78125 52.320312 C 25.292969 51.804688 26.136719 51.800781 26.65625 52.3125 L 28.757812 54.394531 C 29.273438 54.90625 29.277344 55.75 28.765625 56.265625 C 28.253906 56.785156 27.410156 56.789062 26.894531 56.273438 " fill-opacity="1" fill-rule="nonzero"/><path fill="#ffffff" d="M 25.304688 52.839844 C 25.53125 52.609375 25.90625 52.609375 26.136719 52.835938 L 28.238281 54.917969 C 28.46875 55.144531 28.46875 55.519531 28.242188 55.75 C 28.015625 55.976562 27.640625 55.980469 27.410156 55.753906 L 25.308594 53.671875 C 25.078125 53.441406 25.078125 53.070312 25.304688 52.839844 " fill-opacity="1" fill-rule="nonzero"/><path fill="#fef4df" d="M 61.546875 24.949219 L 59.378906 26.960938 C 58.84375 27.457031 58.003906 27.425781 57.507812 26.890625 C 57.011719 26.355469 57.042969 25.515625 57.578125 25.019531 L 59.746094 23.007812 C 60.28125 22.511719 61.121094 22.542969 61.617188 23.078125 C 62.113281 23.613281 62.082031 24.453125 61.546875 24.949219 " fill-opacity="1" fill-rule="nonzero"/><path fill="#ffffff" d="M 58.046875 26.390625 C 57.828125 26.152344 57.839844 25.78125 58.078125 25.558594 L 60.246094 23.546875 C 60.484375 23.328125 60.859375 23.34375 61.078125 23.578125 C 61.296875 23.816406 61.285156 24.191406 61.046875 24.410156 L 58.878906 26.421875 C 58.640625 26.640625 58.265625 26.628906 58.046875 26.390625 " fill-opacity="1" fill-rule="nonzero"/><path fill="#fef4df" d="M 69.234375 37.464844 L 67.0625 39.476562 C 66.53125 39.972656 65.6875 39.941406 65.191406 39.40625 C 64.699219 38.871094 64.730469 38.03125 65.261719 37.535156 L 67.433594 35.523438 C 67.964844 35.027344 68.808594 35.0625 69.304688 35.59375 C 69.796875 36.128906 69.765625 36.96875 69.234375 37.464844 " fill-opacity="1" fill-rule="nonzero"/><path fill="#ffffff" d="M 65.730469 38.90625 C 65.511719 38.667969 65.527344 38.296875 65.761719 38.074219 L 67.933594 36.0625 C 68.171875 35.84375 68.542969 35.859375 68.765625 36.09375 C 68.984375 36.332031 68.96875 36.707031 68.730469 36.925781 L 66.5625 38.9375 C 66.324219 39.15625 65.953125 39.144531 65.730469 38.90625 " fill-opacity="1" fill-rule="nonzero"/><path fill="#fef4df" d="M 16.140625 50.777344 L 13.972656 52.789062 C 13.4375 53.28125 12.59375 53.25 12.101562 52.71875 C 11.605469 52.183594 11.636719 51.339844 12.171875 50.847656 L 14.339844 48.835938 C 14.875 48.339844 15.714844 48.371094 16.210938 48.90625 C 16.707031 49.4375 16.675781 50.28125 16.140625 50.777344 " fill-opacity="1" fill-rule="nonzero"/><path fill="#ffffff" d="M 12.640625 52.214844 C 12.417969 51.980469 12.433594 51.605469 12.671875 51.386719 L 14.839844 49.375 C 15.078125 49.152344 15.453125 49.167969 15.671875 49.40625 C 15.890625 49.640625 15.878906 50.015625 15.640625 50.234375 L 13.46875 52.25 C 13.234375 52.46875 12.859375 52.453125 12.640625 52.214844 " fill-opacity="1" fill-rule="nonzero"/><path fill="#fef4df" d="M 18.609375 24.035156 L 20.175781 21.527344 C 20.558594 20.90625 21.378906 20.71875 21.996094 21.101562 C 22.613281 21.488281 22.804688 22.308594 22.421875 22.925781 L 20.855469 25.4375 C 20.46875 26.054688 19.648438 26.246094 19.03125 25.859375 C 18.414062 25.476562 18.222656 24.65625 18.609375 24.035156 " fill-opacity="1" fill-rule="nonzero"/><path fill="#ffffff" d="M 21.609375 21.726562 C 21.882812 21.898438 21.96875 22.261719 21.796875 22.539062 L 20.230469 25.046875 C 20.058594 25.324219 19.695312 25.40625 19.421875 25.234375 C 19.144531 25.066406 19.0625 24.699219 19.234375 24.425781 L 20.796875 21.914062 C 20.96875 21.640625 21.332031 21.554688 21.609375 21.726562 " fill-opacity="1" fill-rule="nonzero"/><path fill="#fef4df" d="M 10.324219 30.101562 L 8.15625 32.113281 C 7.621094 32.609375 6.78125 32.574219 6.285156 32.042969 C 5.789062 31.507812 5.824219 30.667969 6.355469 30.171875 L 8.527344 28.160156 C 9.058594 27.664062 9.902344 27.695312 10.394531 28.230469 C 10.890625 28.765625 10.859375 29.605469 10.324219 30.101562 " fill-opacity="1" fill-rule="nonzero"/><path fill="#ffffff" d="M 6.824219 31.542969 C 6.605469 31.304688 6.621094 30.929688 6.855469 30.710938 L 9.027344 28.699219 C 9.261719 28.480469 9.636719 28.492188 9.855469 28.730469 C 10.078125 28.96875 10.0625 29.339844 9.824219 29.5625 L 7.65625 31.574219 C 7.417969 31.792969 7.046875 31.777344 6.824219 31.542969 " fill-opacity="1" fill-rule="nonzero"/><path fill="#fef4df" d="M 31.632812 18.367188 L 29.230469 16.640625 C 28.640625 16.214844 28.503906 15.382812 28.929688 14.792969 C 29.355469 14.203125 30.1875 14.066406 30.777344 14.492188 L 33.179688 16.21875 C 33.769531 16.644531 33.90625 17.476562 33.480469 18.066406 C 33.054688 18.65625 32.226562 18.792969 31.632812 18.367188 " fill-opacity="1" fill-rule="nonzero"/><path fill="#ffffff" d="M 29.527344 15.222656 C 29.714844 14.960938 30.085938 14.898438 30.347656 15.089844 L 32.75 16.816406 C 33.011719 17.003906 33.074219 17.375 32.882812 17.636719 C 32.695312 17.898438 32.324219 17.960938 32.0625 17.769531 L 29.660156 16.042969 C 29.398438 15.855469 29.339844 15.484375 29.527344 15.222656 " fill-opacity="1" fill-rule="nonzero"/><path fill="#f686b4" d="M 14.917969 25.46875 L 16.160156 28.15625 C 16.464844 28.816406 16.171875 29.605469 15.511719 29.910156 C 14.851562 30.21875 14.058594 29.925781 13.753906 29.265625 L 12.515625 26.578125 C 12.210938 25.917969 12.5 25.128906 13.160156 24.820312 C 13.820312 24.515625 14.613281 24.808594 14.917969 25.46875 " fill-opacity="1" fill-rule="nonzero"/><path fill="#f89cc1" d="M 15.203125 29.242188 C 14.910156 29.378906 14.558594 29.25 14.421875 28.957031 L 13.183594 26.269531 C 13.046875 25.976562 13.175781 25.625 13.46875 25.488281 C 13.761719 25.355469 14.113281 25.484375 14.25 25.777344 L 15.492188 28.464844 C 15.625 28.757812 15.496094 29.109375 15.203125 29.242188 " fill-opacity="1" fill-rule="nonzero"/><path fill="#f686b4" d="M 24.0625 12.453125 L 25.304688 15.140625 C 25.609375 15.800781 25.316406 16.589844 24.65625 16.894531 C 23.996094 17.199219 23.207031 16.910156 22.902344 16.25 L 21.660156 13.5625 C 21.355469 12.902344 21.644531 12.109375 22.304688 11.804688 C 22.96875 11.5 23.757812 11.792969 24.0625 12.453125 " fill-opacity="1" fill-rule="nonzero"/><path fill="#f89cc1" d="M 24.347656 16.226562 C 24.054688 16.363281 23.703125 16.234375 23.566406 15.941406 L 22.328125 13.253906 C 22.191406 12.960938 22.320312 12.609375 22.613281 12.472656 C 22.910156 12.339844 23.257812 12.46875 23.394531 12.761719 L 24.636719 15.449219 C 24.773438 15.742188 24.640625 16.09375 24.347656 16.226562 " fill-opacity="1" fill-rule="nonzero"/><path fill="#f686b4" d="M 39.511719 13.078125 L 40.753906 15.761719 C 41.058594 16.425781 40.765625 17.214844 40.105469 17.519531 C 39.445312 17.824219 38.65625 17.535156 38.347656 16.875 L 37.109375 14.1875 C 36.804688 13.527344 37.09375 12.734375 37.753906 12.429688 C 38.414062 12.125 39.207031 12.417969 39.511719 13.078125 " fill-opacity="1" fill-rule="nonzero"/><path fill="#f89cc1" d="M 39.796875 16.851562 C 39.503906 16.988281 39.152344 16.859375 39.015625 16.566406 L 37.777344 13.878906 C 37.640625 13.585938 37.769531 13.234375 38.0625 13.097656 C 38.355469 12.960938 38.707031 13.09375 38.84375 13.386719 L 40.085938 16.070312 C 40.21875 16.367188 40.089844 16.714844 39.796875 16.851562 " fill-opacity="1" fill-rule="nonzero"/><path fill="#f686b4" d="M 24.535156 60.496094 L 25.453125 63.308594 C 25.675781 64 25.296875 64.75 24.601562 64.976562 C 23.910156 65.203125 23.160156 64.820312 22.933594 64.128906 L 22.019531 61.316406 C 21.792969 60.621094 22.175781 59.871094 22.867188 59.648438 C 23.558594 59.421875 24.308594 59.800781 24.535156 60.496094 " fill-opacity="1" fill-rule="nonzero"/><path fill="#f89cc1" d="M 24.375 64.277344 C 24.066406 64.378906 23.734375 64.207031 23.632812 63.902344 L 22.71875 61.085938 C 22.617188 60.78125 22.789062 60.445312 23.09375 60.34375 C 23.402344 60.246094 23.738281 60.414062 23.835938 60.722656 L 24.753906 63.535156 C 24.851562 63.84375 24.683594 64.175781 24.375 64.277344 " fill-opacity="1" fill-rule="nonzero"/><path fill="#f686b4" d="M 9.785156 46.089844 L 8.027344 43.707031 C 7.59375 43.125 7.71875 42.289062 8.304688 41.859375 C 8.890625 41.425781 9.722656 41.550781 10.15625 42.136719 L 11.914062 44.515625 C 12.347656 45.097656 12.222656 45.933594 11.636719 46.367188 C 11.050781 46.796875 10.21875 46.671875 9.785156 46.089844 " fill-opacity="1" fill-rule="nonzero"/><path fill="#f89cc1" d="M 8.742188 42.449219 C 9.003906 42.257812 9.371094 42.3125 9.566406 42.574219 L 11.324219 44.953125 C 11.515625 45.210938 11.460938 45.582031 11.199219 45.773438 C 10.941406 45.964844 10.570312 45.910156 10.378906 45.652344 L 8.621094 43.273438 C 8.425781 43.011719 8.480469 42.640625 8.742188 42.449219 " fill-opacity="1" fill-rule="nonzero"/><path fill="#f686b4" d="M 52.121094 56.003906 L 51.542969 53.101562 C 51.402344 52.386719 51.871094 51.6875 52.585938 51.542969 C 53.296875 51.402344 54 51.871094 54.140625 52.585938 L 54.71875 55.488281 C 54.859375 56.199219 54.390625 56.902344 53.679688 57.042969 C 52.964844 57.183594 52.265625 56.71875 52.121094 56.003906 " fill-opacity="1" fill-rule="nonzero"/><path fill="#f89cc1" d="M 52.726562 52.265625 C 53.046875 52.203125 53.355469 52.410156 53.417969 52.726562 L 53.996094 55.628906 C 54.058594 55.949219 53.851562 56.257812 53.535156 56.320312 C 53.21875 56.386719 52.90625 56.175781 52.84375 55.859375 L 52.265625 52.957031 C 52.203125 52.640625 52.410156 52.328125 52.726562 52.265625 " fill-opacity="1" fill-rule="nonzero"/><path fill="#f686b4" d="M 64.019531 48.828125 L 63.441406 45.925781 C 63.300781 45.210938 63.765625 44.511719 64.480469 44.371094 C 65.195312 44.226562 65.894531 44.695312 66.039062 45.410156 L 66.613281 48.3125 C 66.757812 49.027344 66.289062 49.726562 65.574219 49.867188 C 64.859375 50.011719 64.160156 49.542969 64.019531 48.828125 " fill-opacity="1" fill-rule="nonzero"/><path fill="#f89cc1" d="M 64.625 45.089844 C 64.941406 45.027344 65.253906 45.234375 65.316406 45.554688 L 65.894531 48.457031 C 65.957031 48.773438 65.75 49.082031 65.429688 49.148438 C 65.113281 49.210938 64.800781 49.003906 64.738281 48.683594 L 64.164062 45.78125 C 64.097656 45.464844 64.308594 45.15625 64.625 45.089844 " fill-opacity="1" fill-rule="nonzero"/><path fill="#f686b4" d="M 52.121094 16.058594 L 51.542969 13.15625 C 51.402344 12.445312 51.871094 11.742188 52.585938 11.601562 C 53.296875 11.460938 54 11.925781 54.140625 12.640625 L 54.71875 15.542969 C 54.859375 16.257812 54.390625 16.957031 53.679688 17.101562 C 52.964844 17.242188 52.265625 16.773438 52.121094 16.058594 " fill-opacity="1" fill-rule="nonzero"/><path fill="#f89cc1" d="M 52.726562 12.324219 C 53.046875 12.261719 53.355469 12.46875 53.417969 12.785156 L 53.996094 15.6875 C 54.058594 16.003906 53.851562 16.316406 53.535156 16.378906 C 53.21875 16.441406 52.90625 16.234375 52.84375 15.917969 L 52.265625 13.015625 C 52.203125 12.695312 52.410156 12.386719 52.726562 12.324219 " fill-opacity="1" fill-rule="nonzero"/><path fill="#f686b4" d="M 59.492188 33.582031 L 56.851562 32.246094 C 56.199219 31.917969 55.9375 31.117188 56.265625 30.46875 C 56.59375 29.816406 57.394531 29.554688 58.046875 29.882812 L 60.6875 31.21875 C 61.335938 31.546875 61.597656 32.347656 61.269531 32.996094 C 60.941406 33.648438 60.140625 33.910156 59.492188 33.582031 " fill-opacity="1" fill-rule="nonzero"/><path fill="#f89cc1" d="M 56.921875 30.800781 C 57.070312 30.511719 57.425781 30.394531 57.714844 30.539062 L 60.351562 31.875 C 60.640625 32.019531 60.757812 32.375 60.613281 32.664062 C 60.464844 32.953125 60.109375 33.070312 59.824219 32.925781 L 57.183594 31.589844 C 56.894531 31.441406 56.777344 31.085938 56.921875 30.800781 " fill-opacity="1" fill-rule="nonzero"/><path fill="#f686b4" d="M 36.441406 59.425781 L 39.402344 59.421875 C 40.128906 59.421875 40.726562 60.015625 40.726562 60.742188 C 40.726562 61.472656 40.132812 62.070312 39.40625 62.070312 L 36.445312 62.074219 C 35.71875 62.074219 35.121094 61.480469 35.121094 60.75 C 35.121094 60.023438 35.714844 59.425781 36.441406 59.425781 " fill-opacity="1" fill-rule="nonzero"/><path fill="#f89cc1" d="M 39.992188 60.746094 C 39.992188 61.066406 39.726562 61.332031 39.402344 61.332031 L 36.445312 61.335938 C 36.121094 61.335938 35.855469 61.074219 35.855469 60.75 C 35.855469 60.425781 36.121094 60.160156 36.441406 60.160156 L 39.402344 60.15625 C 39.726562 60.15625 39.992188 60.421875 39.992188 60.746094 " fill-opacity="1" fill-rule="nonzero"/><path fill="#faef81" d="M 10.382812 36.515625 L 13.261719 35.839844 C 13.972656 35.671875 14.6875 36.117188 14.851562 36.824219 C 15.019531 37.535156 14.574219 38.25 13.867188 38.417969 L 10.984375 39.09375 C 10.277344 39.257812 9.5625 38.8125 9.394531 38.105469 C 9.230469 37.398438 9.671875 36.679688 10.382812 36.515625 " fill-opacity="1" fill-rule="nonzero"/><path fill="#fbf296" d="M 14.136719 36.992188 C 14.210938 37.308594 14.011719 37.625 13.699219 37.699219 L 10.816406 38.375 C 10.503906 38.449219 10.183594 38.253906 10.109375 37.9375 C 10.039062 37.621094 10.234375 37.304688 10.550781 37.230469 L 13.429688 36.554688 C 13.746094 36.480469 14.0625 36.679688 14.136719 36.992188 " fill-opacity="1" fill-rule="nonzero"/><path fill="#faef81" d="M 57.027344 17.800781 L 59.90625 17.125 C 60.613281 16.957031 61.332031 17.402344 61.496094 18.109375 C 61.664062 18.820312 61.21875 19.535156 60.511719 19.703125 L 57.628906 20.378906 C 56.921875 20.542969 56.203125 20.097656 56.039062 19.390625 C 55.871094 18.683594 56.316406 17.964844 57.027344 17.800781 " fill-opacity="1" fill-rule="nonzero"/><path fill="#fbf296" d="M 60.78125 18.277344 C 60.855469 18.59375 60.65625 18.910156 60.34375 18.984375 L 57.460938 19.660156 C 57.148438 19.734375 56.828125 19.539062 56.753906 19.222656 C 56.679688 18.90625 56.878906 18.589844 57.191406 18.515625 L 60.074219 17.839844 C 60.386719 17.765625 60.707031 17.964844 60.78125 18.277344 " fill-opacity="1" fill-rule="nonzero"/><path fill="#faef81" d="M 44.707031 11.039062 L 46.976562 9.140625 C 47.535156 8.671875 48.375 8.75 48.839844 9.304688 C 49.308594 9.863281 49.234375 10.703125 48.675781 11.171875 L 46.40625 13.070312 C 45.847656 13.539062 45.007812 13.460938 44.542969 12.90625 C 44.074219 12.347656 44.148438 11.507812 44.707031 11.039062 " fill-opacity="1" fill-rule="nonzero"/><path fill="#fbf296" d="M 48.277344 9.777344 C 48.484375 10.027344 48.449219 10.398438 48.203125 10.605469 L 45.933594 12.507812 C 45.6875 12.714844 45.3125 12.679688 45.105469 12.433594 C 44.898438 12.183594 44.929688 11.8125 45.179688 11.605469 L 47.449219 9.703125 C 47.695312 9.496094 48.070312 9.53125 48.277344 9.777344 " fill-opacity="1" fill-rule="nonzero"/><path fill="#faef81" d="M 63.8125 31.394531 L 62.453125 28.765625 C 62.121094 28.117188 62.375 27.316406 63.023438 26.980469 C 63.667969 26.648438 64.472656 26.902344 64.804688 27.550781 L 66.164062 30.175781 C 66.5 30.824219 66.242188 31.625 65.597656 31.960938 C 64.949219 32.296875 64.148438 32.039062 63.8125 31.394531 " fill-opacity="1" fill-rule="nonzero"/><path fill="#fbf296" d="M 63.359375 27.632812 C 63.648438 27.484375 64.003906 27.601562 64.152344 27.886719 L 65.511719 30.515625 C 65.660156 30.800781 65.546875 31.160156 65.257812 31.308594 C 64.972656 31.457031 64.617188 31.34375 64.464844 31.054688 L 63.109375 28.425781 C 62.960938 28.140625 63.074219 27.78125 63.359375 27.632812 " fill-opacity="1" fill-rule="nonzero"/><path fill="#faef81" d="M 14.285156 18.273438 L 17.164062 17.597656 C 17.875 17.433594 18.589844 17.875 18.753906 18.585938 C 18.921875 19.292969 18.476562 20.007812 17.769531 20.175781 L 14.886719 20.851562 C 14.179688 21.019531 13.464844 20.574219 13.296875 19.863281 C 13.132812 19.15625 13.574219 18.441406 14.285156 18.273438 " fill-opacity="1" fill-rule="nonzero"/><path fill="#fbf296" d="M 18.039062 18.753906 C 18.113281 19.066406 17.914062 19.386719 17.601562 19.460938 L 14.71875 20.132812 C 14.40625 20.207031 14.085938 20.011719 14.011719 19.695312 C 13.9375 19.382812 14.136719 19.0625 14.453125 18.992188 L 17.332031 18.316406 C 17.648438 18.242188 17.964844 18.4375 18.039062 18.753906 " fill-opacity="1" fill-rule="nonzero"/><path fill="#faef81" d="M 28.144531 9.027344 L 31.023438 8.351562 C 31.734375 8.1875 32.449219 8.628906 32.617188 9.339844 C 32.78125 10.046875 32.339844 10.761719 31.628906 10.929688 L 28.75 11.605469 C 28.039062 11.769531 27.324219 11.328125 27.15625 10.617188 C 26.992188 9.910156 27.4375 9.195312 28.144531 9.027344 " fill-opacity="1" fill-rule="nonzero"/><path fill="#fbf296" d="M 31.898438 9.507812 C 31.972656 9.820312 31.777344 10.140625 31.460938 10.214844 L 28.582031 10.886719 C 28.265625 10.960938 27.949219 10.765625 27.875 10.449219 C 27.800781 10.136719 27.996094 9.816406 28.3125 9.742188 L 31.191406 9.066406 C 31.507812 8.996094 31.824219 9.191406 31.898438 9.507812 " fill-opacity="1" fill-rule="nonzero"/><path fill="#faef81" d="M 16.519531 56.808594 L 19.398438 56.132812 C 20.109375 55.96875 20.824219 56.410156 20.988281 57.121094 C 21.15625 57.828125 20.710938 58.546875 20.003906 58.710938 L 17.121094 59.386719 C 16.414062 59.554688 15.699219 59.109375 15.53125 58.398438 C 15.367188 57.691406 15.808594 56.976562 16.519531 56.808594 " fill-opacity="1" fill-rule="nonzero"/><path fill="#fbf296" d="M 20.273438 57.289062 C 20.347656 57.605469 20.152344 57.921875 19.835938 57.996094 L 16.957031 58.671875 C 16.640625 58.746094 16.320312 58.546875 16.25 58.230469 C 16.175781 57.917969 16.371094 57.597656 16.6875 57.527344 L 19.566406 56.851562 C 19.882812 56.777344 20.199219 56.972656 20.273438 57.289062 " fill-opacity="1" fill-rule="nonzero"/><path fill="#faef81" d="M 29.808594 65.335938 L 31.816406 63.160156 C 32.308594 62.625 33.152344 62.59375 33.6875 63.085938 C 34.222656 63.578125 34.257812 64.421875 33.761719 64.957031 L 31.757812 67.132812 C 31.261719 67.667969 30.421875 67.699219 29.886719 67.207031 C 29.351562 66.714844 29.316406 65.871094 29.808594 65.335938 " fill-opacity="1" fill-rule="nonzero"/><path fill="#fbf296" d="M 33.1875 63.625 C 33.425781 63.84375 33.441406 64.21875 33.222656 64.457031 L 31.214844 66.632812 C 30.996094 66.871094 30.621094 66.886719 30.386719 66.664062 C 30.148438 66.445312 30.132812 66.074219 30.351562 65.835938 L 32.355469 63.660156 C 32.578125 63.421875 32.949219 63.40625 33.1875 63.625 " fill-opacity="1" fill-rule="nonzero"/><path fill="#faef81" d="M 51.519531 61.359375 L 54.398438 60.683594 C 55.109375 60.519531 55.824219 60.960938 55.988281 61.671875 C 56.15625 62.378906 55.710938 63.097656 55.003906 63.261719 L 52.121094 63.9375 C 51.414062 64.105469 50.699219 63.660156 50.53125 62.949219 C 50.367188 62.242188 50.808594 61.527344 51.519531 61.359375 " fill-opacity="1" fill-rule="nonzero"/><path fill="#fbf296" d="M 55.273438 61.839844 C 55.347656 62.15625 55.152344 62.472656 54.835938 62.546875 L 51.953125 63.222656 C 51.640625 63.296875 51.320312 63.097656 51.25 62.785156 C 51.175781 62.46875 51.371094 62.148438 51.6875 62.078125 L 54.566406 61.402344 C 54.882812 61.328125 55.199219 61.523438 55.273438 61.839844 " fill-opacity="1" fill-rule="nonzero"/><path fill="#faef81" d="M 61.226562 54.199219 L 59.117188 56.273438 C 58.601562 56.785156 57.757812 56.78125 57.246094 56.261719 C 56.734375 55.742188 56.742188 54.902344 57.257812 54.390625 L 59.367188 52.3125 C 59.886719 51.800781 60.726562 51.808594 61.238281 52.324219 C 61.75 52.84375 61.742188 53.6875 61.226562 54.199219 " fill-opacity="1" fill-rule="nonzero"/><path fill="#fbf296" d="M 57.769531 55.746094 C 57.542969 55.515625 57.546875 55.140625 57.777344 54.914062 L 59.882812 52.835938 C 60.113281 52.609375 60.488281 52.613281 60.714844 52.84375 C 60.941406 53.074219 60.9375 53.445312 60.707031 53.675781 L 58.601562 55.75 C 58.371094 55.976562 57.996094 55.976562 57.769531 55.746094 " fill-opacity="1" fill-rule="nonzero"/><path fill="#faef81" d="M 17.402344 46.148438 L 15.964844 43.558594 C 15.613281 42.921875 15.84375 42.113281 16.480469 41.761719 C 17.117188 41.40625 17.929688 41.640625 18.28125 42.277344 L 19.714844 44.863281 C 20.070312 45.5 19.835938 46.308594 19.199219 46.664062 C 18.5625 47.015625 17.753906 46.785156 17.402344 46.148438 " fill-opacity="1" fill-rule="nonzero"/><path fill="#fbf296" d="M 16.839844 42.402344 C 17.121094 42.246094 17.480469 42.351562 17.636719 42.632812 L 19.074219 45.21875 C 19.230469 45.503906 19.125 45.863281 18.84375 46.019531 C 18.5625 46.175781 18.199219 46.074219 18.042969 45.789062 L 16.609375 43.203125 C 16.453125 42.921875 16.554688 42.558594 16.839844 42.402344 " fill-opacity="1" fill-rule="nonzero"/><path fill="#faef81" d="M 62.292969 38.984375 L 61.289062 41.765625 C 61.042969 42.453125 60.28125 42.808594 59.597656 42.5625 C 58.910156 42.316406 58.550781 41.554688 58.800781 40.871094 L 59.800781 38.085938 C 60.046875 37.402344 60.808594 37.042969 61.496094 37.289062 C 62.179688 37.535156 62.539062 38.296875 62.292969 38.984375 " fill-opacity="1" fill-rule="nonzero"/><path fill="#fbf296" d="M 59.84375 41.871094 C 59.542969 41.761719 59.382812 41.421875 59.492188 41.117188 L 60.492188 38.335938 C 60.601562 38.03125 60.941406 37.871094 61.246094 37.980469 C 61.550781 38.089844 61.710938 38.429688 61.601562 38.734375 L 60.597656 41.515625 C 60.488281 41.820312 60.148438 41.980469 59.84375 41.871094 " fill-opacity="1" fill-rule="nonzero"/></svg>